.
 
http://www.scenetime.com    -   SceneTime [ We been having it ] !!!


How come you press harder on a remote control when you know the battery is dead? so you better seed to get speed ;)

        Seed back for speed


...................................NFO:.................................................[img]http://img15.imageshack.us/img15/6485/dylandogblu1.jpg[/img]


[color=blue][size=5][b]Dylan.Dog.Dead.Of.Night.2011.BDRip.XVID.AC3.HQ.Hive-CM8[/b][/size][/color]


[b]Thx Hive


CM8 Doing It Right The First Time :D


Source Bluray

Video: 720x304 @bitrate 1950 2pass
Audio: English DTS to AC3 5.1 @448
Sample: yes included
Subs: yes english in srt /subs[/b]


[url]http://www.imdb.com/title/tt1013860/[/url]


General
Complete name                    : Dylan.Dog.Dead.Of.Night.2011.BDRip.XVID.AC3.HQ.Hive-CM8.avi
Format                           : AVI
Format/Info                      : Audio Video Interleave
File size                        : 1.82 GiB
Duration                         : 1h 47mn
Overall bit rate                 : 2 414 Kbps
Writing application              : Nandub v1.0rc2
Writing library                  : Nandub build 1853/release

Video
ID                               : 0
Format                           : MPEG-4 Visual
Format profile                   : Advanced Simple@L5
Format settings, BVOP            : 1
Format settings, QPel            : Yes
Format settings, GMC             : No warppoints
Format settings, Matrix          : Default (H.263)
Muxing mode                      : Packed bitstream
Codec ID                         : XVID
Codec ID/Hint                    : XviD
Duration                         : 1h 47mn
Bit rate                         : 1 957 Kbps
Width                            : 720 pixels
Height                           : 304 pixels
Display aspect ratio             : 2.35:1
Frame rate                       : 23.976 fps
Color space                      : YUV
Chroma subsampling               : 4:2:0
Bit depth                        : 8 bits
Scan type                        : Progressive
Compression mode                 : Lossy
Bits/(Pixel*Frame)               : 0.373
Stream size                      : 1.47 GiB (81%)
Writing library                  : XviD 1.2.1 (UTC 2008-12-04)

Audio
ID                               : 1
Format                           : AC-3
Format/Info                      : Audio Coding 3
Mode extension                   : CM (complete main)
Codec ID                         : 2000
Duration                         : 1h 47mn
Bit rate mode                    : Constant
Bit rate                         : 448 Kbps
Channel(s)                       : 6 channels
Channel positions                : Front: L C R, Side: L R, LFE
Sampling rate                    : 48.0 KHz
Bit depth                        : 16 bits
Compression mode                 : Lossy
Stream size                      : 345 MiB (19%)
Alignment                        : Split accross interleaves
Interleave, duration             : 42 ms (1.00 video frame)
Interleave, preload duration     : 500 ms


Brandon Routh    ...    Dylan Dog
Peter Stormare   ...    Gabriel
Sam Huntington   ...    Marcus
Taye Diggs       ...    Vargas
Anita Briem      ...    Elizabeth


The adventures of supernatural private eye, Dylan Dog, who seeks out the monsters
of the Louisiana bayou in his signature red shirt, black jacket, and blue jeans. 


[img]http://img263.imageshack.us/img263/5936/dydydy.png[/img]
[img]http://img828.imageshack.us/img828/862/ddyydyddydyydy.png[/img]
[img]http://img96.imageshack.us/img96/2808/ddyydyddyydy.png[/img]
[img]http://img812.imageshack.us/img812/9067/ddyydydy.png[/img]
[img]http://img11.imageshack.us/img11/4958/ddyydydydy.png[/img]
[img]http://img845.imageshack.us/img845/7721/90589342.png[/img]
[img]http://img15.imageshack.us/img15/8555/dydy.png[/img]


cover+label:
[img]http://img534.imageshack.us/img534/3933/dylandogdeadofnight2011.jpg[/img]

[img]http://img12.imageshack.us/img12/5520/dylanjz.jpg[/img]



Greetz

ViSiON,SANTi,MAGNET,THC,T0XiC,LKRG,IMAGiNE,WBZ,FLAWL3SS,NOVA
D2U,Vik,Rapeseed,SAFC,goldadvance,MEMORY100,KaN1vE,Unevano,
Pinnz,Wayne,Mr Hive and all P2P groups 
Great Work Guys :D

FYS

CM8@hushmail.com